<?xml version="1.0" standalone="no"?>
<!DOCTYPE svg PUBLIC "-//W3C//DTD SVG 20010904//EN"
 "http://www.w3.org/TR/2001/REC-SVG-20010904/DTD/svg10.dtd">
<svg version="1.0" xmlns="http://www.w3.org/2000/svg"
 width="200.000000pt" height="200.000000pt" viewBox="0 0 200.000000 200.000000"
 preserveAspectRatio="xMidYMid meet">
<metadata>
Created by potrace 1.14, written by Peter Selinger 2001-2017
</metadata>
<g transform="translate(0.000000,200.000000) scale(0.100000,-0.100000)"
fill="#000000" stroke="none">
<path d="M528 1371 c-75 -14 -139 -28 -142 -31 -3 -3 10 -48 29 -100 19 -52
35 -97 35 -100 0 -12 -48 -34 -80 -35 -29 -2 -43 6 -82 43 -26 25 -50 44 -52
41 -5 -5 -8 -17 -33 -156 l-16 -92 28 -91 c23 -75 25 -96 16 -116 -20 -45 30
-91 63 -58 14 13 53 9 205 -21 14 -2 34 -16 45 -30 21 -24 38 -27 65 -11 9 6
11 21 7 50 -4 29 -3 35 4 20 12 -31 28 -38 87 -40 56 -2 59 1 62 59 0 15 -3
27 -7 28 -4 0 -17 2 -29 5 -19 3 -23 -1 -23 -21 0 -15 -6 -25 -14 -25 -16 0
-24 24 -18 58 4 18 11 22 38 22 30 0 34 3 34 25 0 22 -4 25 -37 25 -30 0 -34
2 -24 13 9 9 64 12 212 11 l199 0 0 23 c0 14 -6 23 -15 23 -11 0 -15 11 -15
40 0 30 4 40 16 40 10 0 14 7 12 23 -3 20 -9 22 -60 24 -56 2 -58 1 -58 -22 0
-16 6 -25 15 -25 11 0 15 -11 15 -40 0 -22 -4 -40 -10 -40 -15 0 -102 282 -90
294 29 29 -2 83 -41 73 -21 -6 -33 4 -149 110 -19 18 -39 32 -45 32 -5 -1 -72
-13 -147 -28z m135 -24 c-3 -12 -17 -30 -33 -39 -30 -17 -29 -17 -140 13 l-45
12 90 17 c128 25 133 24 128 -3z m97 -47 c69 -64 68 -67 -25 -41 -25 7 -44 19
-50 33 -11 24 -8 68 3 68 4 0 36 -27 72 -60z m-233 -12 c46 -11 83 -24 83 -28
0 -16 -132 -102 -141 -93 -5 5 -20 42 -34 82 -21 62 -22 72 -8 67 9 -4 54 -16
100 -28z m270 -64 c50 -10 49 -31 -4 -88 -26 -28 -62 -66 -79 -85 -21 -23 -40
-34 -62 -34 -30 -2 -32 -4 -32 -38 0 -24 -7 -42 -21 -55 -21 -19 -22 -19 -16
1 4 11 11 43 17 70 45 198 52 220 72 236 16 13 29 14 57 7 20 -5 50 -11 68
-14z m-245 -83 c-26 -38 -50 -66 -54 -63 -4 4 -9 18 -12 32 -5 21 2 30 47 62
28 20 55 37 59 38 4 0 -14 -31 -40 -69z m69 37 c-5 -13 -9 -26 -9 -31 0 -4
-13 -59 -28 -123 l-28 -115 -23 65 -24 66 42 62 c62 93 87 120 70 76z m279
-74 c22 -72 25 -98 11 -90 -5 4 -18 -6 -28 -20 l-19 -26 -17 26 c-10 14 -26
26 -37 26 -11 0 -20 2 -20 5 0 11 76 145 82 145 4 0 16 -30 28 -66z m-613 14
c47 -45 43 -66 -21 -110 l-54 -38 15 73 c7 39 15 80 16 90 2 23 6 22 44 -15z
m501 -45 c-37 -70 -32 -65 -51 -57 -13 5 -8 16 30 60 26 30 48 54 49 54 1 0
-11 -26 -28 -57z m-314 -1 c7 -24 5 -37 -8 -58 l-18 -26 -24 23 c-26 25 -24
64 5 86 23 18 34 11 45 -25z m-65 -78 l25 -23 -74 -111 c-41 -60 -79 -109 -84
-107 -6 2 -23 46 -38 97 -22 73 -25 96 -16 101 7 4 35 23 63 43 55 40 83 40
124 0z m116 -62 c7 -23 6 -23 -24 4 -34 30 -38 43 -18 63 12 12 22 -3 42 -67z
m255 3 c0 -51 -3 -65 -15 -65 -8 0 -15 5 -15 10 0 6 -7 10 -16 10 -9 0 -14 3
-12 8 11 26 52 102 55 102 2 0 3 -29 3 -65z m-60 25 c-20 -13 -40 -13 -40 0 0
6 12 10 28 10 21 0 24 -2 12 -10z m-233 -42 c18 -18 33 -39 33 -48 0 -9 -34
-34 -86 -62 -133 -73 -134 -73 -57 41 37 55 70 101 73 101 2 0 19 -14 37 -32z
m482 -35 c1 -7 -3 -13 -9 -13 -5 0 -10 15 -9 33 0 27 2 29 9 12 5 -11 9 -26 9
-32z m-85 26 c13 11 15 9 13 -9 -1 -12 -10 -23 -24 -26 -28 -7 -42 1 -40 25 1
15 4 17 18 8 13 -8 21 -7 33 2z m-264 -21 c0 -16 -3 -19 -11 -11 -6 6 -8 16
-5 22 11 17 16 13 16 -11z m80 18 c0 -3 -4 -8 -10 -11 -5 -3 -10 -1 -10 4 0 6
5 11 10 11 6 0 10 -2 10 -4z m-41 -72 c3 -2 -5 -14 -17 -27 -12 -13 -22 -29
-22 -36 0 -6 -8 -26 -17 -44 l-18 -32 -5 60 c-6 70 9 97 50 89 14 -3 27 -8 29
-10z m-117 -18 c8 -7 15 -35 17 -62 1 -26 4 -51 7 -55 2 -5 -4 -13 -15 -19
-15 -7 -43 -6 -103 5 -160 30 -156 24 -48 79 52 27 99 52 105 57 13 12 21 11
37 -5z"/>
<path d="M1132 933 l3 -88 65 0 65 0 0 45 c0 39 -3 45 -22 48 -22 3 -28 -6
-24 -35 1 -7 -6 -13 -17 -13 -15 0 -18 8 -17 53 1 68 -2 77 -31 77 -25 0 -25
-1 -22 -87z"/>
<path d="M1299 1005 c-4 -45 -5 -142 -1 -152 3 -8 24 -12 65 -10 54 2 62 5 62
22 0 16 -8 21 -37 23 -45 4 -51 22 -9 22 24 0 29 4 28 20 -1 18 -20 26 -49 21
-5 0 -8 3 -8 8 0 6 17 11 38 13 29 2 37 7 37 23 0 18 -7 20 -62 22 -49 2 -63
-1 -64 -12z"/>
</g>
</svg>
